# xmcd CD database file
#
# Track frame offsets:
#	225
#	12424
#	26827
#	37393
#	54912
#	65205
#	78360
#	91614
#	105266
#	120204
#	131597
#	142846
#	156374
#	170724
#
# Disc length: 2429 seconds
#
# Revision: 1
# Processed by: cddbd v1.5.1PL0 Copyright (c) Steve Scherf et al.
# Submitted via: CDex 1.51
#
DISCID=b4097a0e
DTITLE=Scharivari Sextett - 10 Jahre Bierzeltpower
DYEAR=1995
DGENRE=Country
TTITLE0=Mir geh´n no lang net ins Bett
TTITLE1=Hey, Hansi spiel uns einen
TTITLE2=Die Berge die sind mein zuhaus
TTITLE3=Schifoan
TTITLE4=Steirer Man san very good
TTITLE5=Sperr doch dei Hüttn zua
TTITLE6=Auf der Alm
TTITLE7=Trompetenecho
TTITLE8=Sierra Madre
TTITLE9=Die Leit am Land
TTITLE10=Immer locker vom Hocker
TTITLE11=Gö du bleibst heut Nacht bei mir
TTITLE12=Cottonfields
TTITLE13=Hang On Sloopy
EXTD=YEAR: 1995
EXTT0=
EXTT1=
EXTT2=
EXTT3=
EXTT4=
EXTT5=
EXTT6=
EXTT7=
EXTT8=
EXTT9=
EXTT10=
EXTT11=
EXTT12=
EXTT13=
PLAYORDER=
